# xmcd
#
# Track frame offsets:
#	187
#	21472
#	44747
#	63340
#	78205
#	92252
#	111407
#	128582
#	147852
#	166077
#	180297
#	199312
#	218822
#	246820
#	263575
#
# Disc length: 3560 seconds
#
# Revision: 1
# Processed by: cddbd v1.4PL0 Copyright (c) Steve Scherf et al.
# Submitted via: audiograbber 1.80
#
DISCID=c80de60f
DTITLE=김정호 - Kim Jung Ho
DYEAR=1900
DGENRE=
TTITLE0=님
TTITLE1=고독한 여자의 미소는 슬퍼
TTITLE2=이말을 듣고 가오(추모시 낭송)
TTITLE3=세월 그것은 바람
TTITLE4=그사람 무정한 사람
TTITLE5=보고싶은 마음
TTITLE6=님에게(추모시 낭송)
TTITLE7=한세상에 태어나
TTITLE8=지난 겨울엔
TTITLE9=정때문에
TTITLE10=불망곡(추모시 낭송)
TTITLE11=나를 두고
TTITLE12=작은 새(시 낭송)
TTITLE13=아침 이슬(추모시 낭송)
TTITLE14=시장에 가면
EXTD=
EXTT0=
EXTT1=
EXTT2=
EXTT3=
EXTT4=
EXTT5=
EXTT6=
EXTT7=
EXTT8=
EXTT9=
EXTT10=
EXTT11=
EXTT12=
EXTT13=
EXTT14=
PLAYORDER=
